<?xml version="1.0" encoding="utf-8"?>
<!-- Generator: Adobe Illustrator 24.1.3, SVG Export Plug-In . SVG Version: 6.00 Build 0)  -->
<svg version="1.1" id="Layer_1" xmlns="http://www.w3.org/2000/svg" xmlns:xlink="http://www.w3.org/1999/xlink" x="0px" y="0px"
	 viewBox="0 0 283.46 283.46" style="enable-background:new 0 0 283.46 283.46;" xml:space="preserve">
<g>
	<path d="M55.38,54.43c2.02-2.02,3.97-4.12,6.08-6.04c2.08-1.89,4.04-2.15,5.67,0.74c0.6,1.07,1.59,1.97,2.56,2.76
		c2.58,2.13,6,3.14,7.05,7.18c0.44,1.7,3.26,2.76,4.98,4.14c14.35,11.54,28.79,22.97,42.98,34.7c4.32,3.57,8.72,6.33,14.32,7.28
		c8.77,1.49,15.8,6.14,22,12.39c20.13,20.27,40.38,40.43,60.56,60.65c3.84,3.85,7.62,7.77,11.32,11.75c4.1,4.4,3.91,9.57,0.72,13.95
		c-5,6.89-10.49,13.49-16.35,19.66c-3.43,3.6-7.86,6.35-12.1,9.06c-4.89,3.13-9.99,3.67-14.65-0.66c-3.51-3.26-7.01-6.54-10.4-9.93
		c-20.67-20.66-41.25-41.39-61.98-62c-6.36-6.32-10.85-13.56-12.37-22.44c-0.84-4.91-3.15-8.89-6.27-12.71
		C86.9,109.45,74.48,93.8,61.9,78.3c-1.04-1.28-2.79-1.97-4.11-3.05c-0.97-0.8-1.81-1.76-2.67-2.69c-2.06-2.22-4.05-4.5-6.16-6.66
		c-1.77-1.81-1.41-3.5,0.11-5.11C51.12,58.62,53.27,56.55,55.38,54.43z"/>
</g>
</svg>
