<?xml version="1.0" encoding="utf-8"?>
<!-- Generator: Adobe Illustrator 24.1.3, SVG Export Plug-In . SVG Version: 6.00 Build 0)  -->
<svg version="1.1" id="Layer_1" xmlns="http://www.w3.org/2000/svg" xmlns:xlink="http://www.w3.org/1999/xlink" x="0px" y="0px"
	 viewBox="0 0 283.46 283.46" style="enable-background:new 0 0 283.46 283.46;" xml:space="preserve">
<g>
	<path d="M266.64,78.73c-2.53-1.52-2.67-4.37-3.62-6.68c-0.58-1.42-1.18-2.29-2.56-2.77c-10.14-3.48-20.46-6.36-30.85-8.97
		c-14.9-3.74-30.11-5.85-45.22-8.47c-6-1.04-12.06-1.59-18.13-2.01c-1.09-0.08-2.04-0.19-2.6-1.36c-0.28-0.59-1.06-0.71-1.71-0.82
		c-6.4-1.15-12.86-1.75-19.35-1.78c-6.69-0.03-13.36,0.5-19.96,1.67c-1.12,0.2-2.18,0.36-2.7,1.58c-0.26,0.61-0.88,0.57-1.44,0.62
		c-3.01,0.24-6.02,0.42-9.01,0.75c-4.8,0.53-9.55,1.36-14.31,2.16c-6.29,1.06-12.64,1.85-18.92,2.97
		c-17.31,3.09-34.28,7.49-51.03,12.86c-3.34,1.07-4.12,3.57-4.95,6.06c-0.48,1.43-0.95,2.55-2.14,3.39
		c-1.17,0.82-1.65,1.95-1.65,3.37c0,1.91,0.24,3.82,0.21,5.72c-0.01,0.75,0.1,1.41,0.32,1.99c1.76,0.72,3.55,1.35,5.43,1.72
		c0.08-0.02,0.17-0.03,0.26-0.03c4.22-0.18,8.32,1.29,12.46,1.89c4.61,0.67,9.24,1.08,13.87,1.57c9.03,0.96,18.03,1.74,27.1,2.13
		c16.45,0.72,32.91,1.03,49.36,1.69c16.33,0.66,32.66,1.31,49,1.43c16.54,0.12,33.1-0.32,49.58-1.85c7.78-0.73,15.55-1.61,23.18-3.3
		c6.93-1.54,13.7-3.64,20.37-6.06c0.02-0.19,0.04-0.38,0.04-0.58c0.03-2.16,0.03-4.33,0.05-6.49
		C267.72,80.15,267.44,79.21,266.64,78.73z"/>
	<path d="M245.42,97.72c-8.7,1.75-17.59,2.59-26.42,3.29c-33.11,2.65-66.34,1.06-99.48-0.26c-16.43-0.65-32.89-0.83-49.31-1.75
		c-8.08-0.45-16.11-1.32-24.16-2.15c-4.11-0.42-8.21-0.85-12.29-1.45c-3.47-0.51-6.87-1.7-10.39-1.7c0.41,0.47,0.58,1.08,0.63,1.86
		c0.18,2.66,0.45,5.31,0.72,7.96c0.65,6.35,1.5,12.69,1.91,19.05c0.23,3.66,1.7,6.21,4.84,7.9c0.82,0.44,1.25,1.03,1.33,2.01
		c0.26,3.2,0.61,6.4,0.93,9.6c1.19,11.9,2.5,23.79,3.53,35.71c0.38,4.36,1.55,8.06,5.32,10.6c0.71,0.48,1,1.18,1.08,2.05
		c0.57,5.9,1.19,11.8,1.76,17.7c0.18,1.9,0.75,3.63,1.8,5.22c2.88,4.34,7.04,7.12,11.56,9.41c8.51,4.31,17.63,6.83,26.9,8.76
		c18.68,3.89,37.62,5.22,56.66,5.12c4.32,0,8.65,0.09,12.97-0.03c3.87-0.1,7.73-0.34,11.59-0.66c6.72-0.55,13.41-1.26,20.08-2.28
		c11.91-1.82,23.66-4.31,34.83-8.99c5.14-2.15,10-4.76,13.82-8.95c2.12-2.33,3.46-4.99,3.73-8.21c0.47-5.56,1.15-11.1,1.66-16.65
		c0.12-1.28,0.65-2.1,1.63-2.87c2.35-1.86,4.15-4.12,4.46-7.25c0.35-3.5,0.64-7.01,0.99-10.51c0.64-6.5,1.31-13,1.96-19.5
		c0.55-5.45,1.17-10.89,1.6-16.35c0.16-1.99,0.59-3.5,2.53-4.53c2.24-1.19,3.52-3.14,3.76-5.81c0.78-8.56,1.77-17.1,2.47-25.66
		c0.17-2.03,0.44-3.85,1.64-5.09C256.6,95.07,251.06,96.59,245.42,97.72z M234.13,195.04c-11.88,4.35-25.03,4.94-37.52,6.17
		c-24.33,2.4-48.86,2.34-73.25,0.93c-12.25-0.71-24.61-1.35-36.78-3c-5.96-0.81-11.85-2.01-17.7-3.4c-5.9-1.4-11.8-2.92-17.83-3.72
		c-1.9-0.25-1.92-3.27,0-3.02c6.68,0.88,13.19,2.55,19.74,4.09c6.59,1.55,13.23,2.79,19.97,3.55c12.14,1.38,24.42,2.07,36.61,2.7
		c12.18,0.62,24.37,0.89,36.56,0.68c12.15-0.21,24.29-0.89,36.37-2.21c11.08-1.21,22.46-1.81,33.01-5.68
		C235.16,191.46,235.94,194.38,234.13,195.04z M246.42,134.78c-6.88,2.36-14.16,2.95-21.35,3.68c-7.4,0.75-14.7,2.16-22.09,2.98
		c-27.36,3.06-54.92,1.76-82.37,0.96c-25.52-0.74-51.51-0.97-76.33-7.62c-0.18-0.05-0.34-0.12-0.47-0.21
		c-0.1,0.02-0.2,0.03-0.31,0.03c-0.64,0-1.07-0.33-1.28-0.76c-1.35-0.41-2.74-0.7-4.08-1.18c-1.82-0.65-1.03-3.57,0.8-2.91
		c1.79,0.64,3.67,0.94,5.44,1.65c0.27,0.11,0.52,0.27,0.71,0.47c0,0,0,0,0,0c13.78,3.7,28.01,5.34,42.22,6.24
		c12.7,0.81,25.44,1.01,38.16,1.42c13.65,0.44,27.31,0.9,40.98,0.83c13.68-0.08,27.38-0.7,40.95-2.46
		c6.45-0.84,12.84-1.97,19.32-2.62c6.39-0.64,12.8-1.32,18.91-3.41C247.46,131.24,248.24,134.16,246.42,134.78z"/>
</g>
</svg>
