<?xml version="1.0" encoding="utf-8"?>
<!-- Generator: Adobe Illustrator 24.1.3, SVG Export Plug-In . SVG Version: 6.00 Build 0)  -->
<svg version="1.1" id="Layer_1" xmlns="http://www.w3.org/2000/svg" xmlns:xlink="http://www.w3.org/1999/xlink" x="0px" y="0px"
	 viewBox="0 0 283.46 283.46" style="enable-background:new 0 0 283.46 283.46;" xml:space="preserve">
<style type="text/css">
	.st0{fill:#FFFFFF;}
</style>
<g>
	<path d="M171.05,241.02c0.2-0.74,0.29-1.07,0.48-1.78c-0.97,0.15-1.97-0.01-2.46,0.42c-3.95,3.47-8.88,3.87-13.73,4.48
		c-3.54,0.44-7.1,0.62-10.72,0.93c0.32-1.41-0.4-2.18-1.62-1.96c-0.1,0.02-0.21,0.05-0.3,0.1c-4.61,2.39-9.45,1.55-14.24,0.9
		c-3.67-0.5-7.31-1.27-11.29-1.97c0.57-0.53,0.85-0.78,1.34-1.24c-0.8-0.39-1.51-1.06-2.05-0.95c-5.44,1.1-10.15-1.16-14.89-3.17
		c-3.18-1.35-6.26-2.92-9.62-4.51c0.59-0.36,0.92-0.56,1.72-1.04c-1.1-0.59-1.91-1.35-2.79-1.45c-3.47-0.4-6.38-1.91-9.05-4.04
		c-3.83-3.05-7.67-6.1-11.57-9.21c1.46-0.98,1.5-2.2,0.13-2.71c-6.35-2.37-9.46-8.02-13.26-12.96c-1.39-1.81-2.56-3.8-3.93-5.86
		c0.54-0.04,0.92-0.06,1.64-0.11c-0.33-0.81-0.41-1.84-0.95-2.2c-4.21-2.83-5.97-7.24-7.71-11.64c-1.4-3.55-2.66-7.16-4.1-11.07
		c0.73,0.24,1.09,0.35,1.87,0.61c-0.16-1.01-0.01-2.07-0.48-2.6c-3.18-3.58-3.74-8.03-4.28-12.47c-0.48-3.96-0.76-7.95-1.15-12.19
		c0.59,0.28,0.93,0.45,1.6,0.77c0.11-0.87,0.55-1.82,0.26-2.41c-2.44-4.99-1.33-10.13-0.68-15.22c0.42-3.32,1.17-6.59,1.81-10.12
		c0.49,0.4,0.8,0.67,1.42,1.18c0.31-0.96,0.91-1.83,0.77-2.55c-0.89-4.45,0.65-8.42,2.32-12.34c1.65-3.86,3.45-7.65,5.32-11.76
		c0.4,0.66,0.6,0.98,1.09,1.77c0.61-1.11,1.39-1.92,1.49-2.8c0.39-3.35,1.72-6.21,3.81-8.8c3.17-3.92,6.31-7.87,9.76-12.18
		c0.19,0.85,0.26,1.17,0.42,1.93c0.78-0.57,1.81-0.92,2.01-1.53c1.41-4.46,4.89-7.14,8.34-9.79c3.12-2.4,6.43-4.54,9.66-6.79
		c0.21-0.15,0.45-0.24,0.8-0.41c-0.03,0.53-0.06,0.92-0.12,1.9c1.09-0.63,2.1-0.88,2.55-1.52c2.65-3.79,6.63-5.54,10.67-7.16
		c3.78-1.52,7.63-2.88,11.72-4.41c-0.19,0.78-0.28,1.16-0.45,1.91c0.97-0.17,1.97-0.05,2.47-0.49c3.86-3.38,8.66-3.85,13.41-4.43
		c3.64-0.44,7.31-0.64,11.04-0.96c-0.32,1.36,0.35,2.13,1.49,1.99c0.26-0.03,0.52-0.12,0.76-0.24c3.66-1.87,7.53-1.66,11.4-1.1
		c4.47,0.65,8.92,1.41,13.69,2.18c-0.49,0.57-0.76,0.88-1.37,1.59c1.16,0.27,2.08,0.74,2.94,0.64c3.53-0.39,6.85,0.12,10.08,1.58
		c4.45,2.02,8.95,3.94,13.75,6.06c-0.69,0.43-1,0.63-1.37,0.85c0.35,1.1,1.02,1.73,2.26,1.79c4.41,0.24,7.73,2.79,10.99,5.37
		c3.26,2.58,6.44,5.26,9.9,8.09c-0.66,0.21-1,0.31-1.65,0.52c0.45,0.7,0.71,1.69,1.26,1.87c5.67,1.92,8.57,6.8,11.96,11.12
		c1.9,2.42,3.52,5.07,5.36,7.77c-0.6,0-1,0-1.59,0c0.11,0.66,0.2,1.27,0.33,1.86c0.03,0.13,0.19,0.26,0.32,0.34
		c5.27,3.43,6.78,9.22,9,14.53c1.08,2.58,1.85,5.29,2.85,8.19c-0.65-0.2-1.01-0.32-1.8-0.56c0.18,1.02,0.05,2.03,0.49,2.54
		c3.07,3.55,3.78,7.9,4.29,12.3c0.47,4.06,0.78,8.14,1.18,12.49c-0.67-0.32-1.01-0.49-1.67-0.8c-0.1,0.93-0.49,1.83-0.22,2.4
		c2.5,5.1,1.31,10.33,0.64,15.52c-0.42,3.21-1.13,6.39-1.76,9.83c-0.47-0.41-0.75-0.66-1.29-1.13c-0.34,0.78-1.03,1.56-0.91,2.18
		c1.1,5.69-1.41,10.53-3.51,15.45c-1.25,2.93-2.71,5.77-4.21,8.92c-0.33-0.62-0.5-0.95-0.87-1.65c-0.61,0.83-1.47,1.48-1.51,2.16
		c-0.25,4.74-2.98,8.23-5.71,11.71c-2.52,3.21-5.18,6.32-8,9.73c-0.19-0.8-0.27-1.14-0.42-1.8c-0.7,0.47-1.66,0.76-1.85,1.31
		c-1.93,5.59-6.65,8.57-10.99,11.88c-2.49,1.9-5.15,3.57-7.96,5.5c0.05-0.73,0.07-1.11,0.12-1.88c-0.89,0.35-1.88,0.42-2.22,0.93
		c-3.04,4.59-7.93,6.28-12.64,8.21C177.93,238.68,174.63,239.73,171.05,241.02z M142.04,62.26c-43.68,0.09-78.98,35.45-78.85,78.98
		c0.13,43.62,35.48,78.76,79.14,78.68c43.42-0.09,78.73-35.53,78.61-78.91C220.83,97.42,185.5,62.16,142.04,62.26z"/>
	<path class="st0" d="M142.04,62.26c43.47-0.09,78.79,35.16,78.91,78.75c0.12,43.38-35.19,78.82-78.61,78.91
		c-43.66,0.09-79.02-35.06-79.14-78.68C63.06,97.71,98.36,62.35,142.04,62.26z M217.17,141.01c0-41.38-33.61-75.1-74.89-75.13
		c-41.64-0.03-75.27,33.55-75.31,75.2c-0.05,41.62,33.66,75.38,75.46,75.15C184.48,216,217.25,181.99,217.17,141.01z"/>
	<path d="M217.17,141.01c0.07,40.97-32.7,74.99-74.75,75.22c-41.8,0.23-75.51-33.53-75.46-75.15c0.05-41.65,33.67-75.22,75.31-75.2
		C183.56,65.91,217.18,99.63,217.17,141.01z M191.02,191.21c9.16-9.01,15.35-19.59,18.67-31.82c2.78-10.25,3.17-20.63,1.23-31.22
		c-0.96,0.3-1.72,0.53-2.47,0.78c-11.81,3.94-23.63,7.82-35.41,11.84c-5.36,1.83-8.36,6.39-8.06,11.74c0.17,3.05,1.55,5.61,3.31,8
		c5.19,7.04,10.39,14.06,15.6,21.09C186.23,184.77,188.58,187.93,191.02,191.21z M176.58,202.21c-3.92-5.17-7.65-10.1-11.39-15.03
		c-4.29-5.65-8.49-11.37-12.89-16.92c-4.41-5.57-11.56-6.27-16.96-1.72c-1.48,1.25-2.68,2.89-3.8,4.5
		c-5.71,8.17-11.36,16.38-17.03,24.58c-1.35,1.96-2.68,3.93-4.13,6.07C132.77,214.2,154.66,213.61,176.58,202.21z M94.7,192.5
		c0.35-0.47,0.71-0.92,1.03-1.39c2.35-3.37,4.68-6.74,7.03-10.11c4.69-6.73,9.37-13.48,14.1-20.18c2.67-3.79,3.67-7.81,1.83-12.2
		c-1.59-3.8-4.66-6-8.51-7.17c-9.92-3.02-19.85-6.01-29.78-9.01c-2.47-0.75-4.94-1.48-7.44-2.23
		C68.82,153.52,78.56,178.6,94.7,192.5z M151.43,71.52c-0.09,0.41-0.18,0.61-0.18,0.81c0.08,13.49,0.07,26.97,0.31,40.46
		c0.1,5.62,5.39,10.56,10.98,10.37c2.82-0.1,5.69-0.73,8.39-1.59c8.71-2.77,17.35-5.75,26.02-8.64c2.63-0.88,5.27-1.77,8.11-2.72
		C193.46,88.29,175.63,75.59,151.43,71.52z M131.42,71.84c-11.55,1.78-21.92,6.14-31.21,13.07c-9.38,7.01-16.56,15.83-21.6,26.51
		c0.44,0.16,0.68,0.27,0.92,0.35c12.38,3.85,24.74,7.78,37.16,11.52c7.87,2.37,15.27-3.09,15.28-11.32
		c0.01-12.95-0.24-25.91-0.39-38.86C131.57,72.74,131.49,72.38,131.42,71.84z M152.57,140.97c-0.07-5.86-4.8-10.49-10.67-10.44
		c-5.74,0.06-10.41,4.87-10.31,10.65c0.1,5.91,4.85,10.57,10.67,10.46C148.02,151.53,152.64,146.76,152.57,140.97z M154.32,160.63
		c2.01-0.03,3.62-1.69,3.6-3.72c-0.02-1.99-1.71-3.67-3.69-3.66c-1.99,0.01-3.68,1.69-3.68,3.66
		C150.56,159.02,152.23,160.67,154.32,160.63z M122.59,139.53c2.11,0.07,3.85-1.52,3.91-3.58c0.05-1.9-1.66-3.7-3.6-3.79
		c-1.96-0.09-3.7,1.56-3.76,3.56C119.07,137.8,120.57,139.46,122.59,139.53z M161.09,138.67c2.06,0.02,3.75-1.68,3.72-3.74
		c-0.02-1.86-1.77-3.68-3.52-3.66c-2.17,0.02-3.83,1.57-3.85,3.61C157.42,137.02,158.98,138.65,161.09,138.67z M141.53,124.77
		c2.01,0.03,3.64-1.56,3.71-3.61c0.06-1.98-1.56-3.7-3.56-3.76c-2.04-0.06-3.81,1.64-3.82,3.69
		C137.84,123.05,139.54,124.74,141.53,124.77z M134.31,157.51c0-2.07-1.56-3.64-3.62-3.65c-2.03-0.01-3.7,1.59-3.75,3.58
		c-0.04,2,1.76,3.82,3.76,3.79C132.69,161.2,134.31,159.53,134.31,157.51z"/>
	<path class="st0" d="M152.57,140.97c0.07,5.79-4.55,10.56-10.31,10.67c-5.83,0.11-10.58-4.55-10.67-10.46
		c-0.09-5.78,4.57-10.59,10.31-10.65C147.77,130.48,152.5,135.11,152.57,140.97z M150,141.16c-0.22-4.93-3.69-8.26-8.39-8.06
		c-4.3,0.18-7.7,3.95-7.5,8.32c0.2,4.47,3.86,7.84,8.32,7.66C146.67,148.91,150.18,145.23,150,141.16z"/>
	<path class="st0" d="M154.32,160.63c-2.1,0.04-3.77-1.61-3.76-3.72c0-1.97,1.69-3.65,3.68-3.66c1.97-0.01,3.67,1.67,3.69,3.66
		C157.94,158.94,156.34,160.6,154.32,160.63z"/>
	<path class="st0" d="M122.59,139.53c-2.02-0.07-3.52-1.73-3.46-3.81c0.06-2,1.81-3.65,3.76-3.56c1.94,0.09,3.65,1.89,3.6,3.79
		C126.44,138.01,124.7,139.6,122.59,139.53z"/>
	<path class="st0" d="M161.09,138.67c-2.11-0.02-3.67-1.65-3.65-3.79c0.02-2.04,1.68-3.59,3.85-3.61c1.75-0.01,3.5,1.8,3.52,3.66
		C164.84,137,163.15,138.7,161.09,138.67z"/>
	<path class="st0" d="M141.53,124.77c-1.99-0.03-3.69-1.72-3.68-3.68c0.01-2.04,1.78-3.75,3.82-3.69c2,0.06,3.63,1.78,3.56,3.76
		C145.18,123.21,143.55,124.8,141.53,124.77z"/>
	<path class="st0" d="M134.31,157.51c0,2.02-1.62,3.69-3.61,3.72c-2,0.03-3.8-1.79-3.76-3.79c0.04-1.99,1.72-3.59,3.75-3.58
		C132.75,153.87,134.31,155.44,134.31,157.51z"/>
	<path d="M150,141.16c0.18,4.07-3.33,7.74-7.56,7.91c-4.46,0.18-8.12-3.19-8.32-7.66c-0.2-4.36,3.2-8.14,7.5-8.32
		C146.31,132.9,149.78,136.24,150,141.16z"/>
</g>
</svg>
