<?xml version="1.0" encoding="utf-8"?>
<!-- Generator: Adobe Illustrator 24.1.3, SVG Export Plug-In . SVG Version: 6.00 Build 0)  -->
<svg version="1.1" id="Layer_1" xmlns="http://www.w3.org/2000/svg" xmlns:xlink="http://www.w3.org/1999/xlink" x="0px" y="0px"
	 viewBox="0 0 283.46 283.46" style="enable-background:new 0 0 283.46 283.46;" xml:space="preserve">
<g>
	<path d="M142.06,88.1c20.75,0,41.5-0.02,62.25,0.01c7.25,0.01,8.54,1.11,8,8.25c-2.14,28.87-4.46,57.72-6.74,86.58
		c-1.39,17.6-2.86,35.19-4.23,52.79c-0.59,7.62-3.14,10.2-10.8,10.21c-32.46,0.04-64.92,0.04-97.39,0c-7.1-0.01-9.65-2.35-10.2-9.44
		c-2.57-32.75-5.04-65.5-7.61-98.24c-1.07-13.71-2.38-27.4-3.42-41.12c-0.59-7.8,0.66-9.01,8.49-9.02
		C100.97,88.09,121.52,88.11,142.06,88.1z M146.78,167.12c0-17.66,0.05-35.32-0.04-52.98c-0.02-3.69,1.15-9.02-4.55-9
		c-5.8,0.02-4.42,5.44-4.43,9.06c-0.1,35.53-0.08,71.06-0.06,106.58c0,2.04-0.07,4.21,0.6,6.06c0.46,1.27,2.17,2.93,3.3,2.91
		c1.5-0.03,3.61-1.17,4.3-2.46c0.89-1.66,0.84-3.94,0.85-5.96C146.81,203.27,146.78,185.19,146.78,167.12z M96.58,111.2
		c0.43,0.36,0.86,0.73,1.29,1.09c0.32,3.48,0.69,6.95,0.95,10.43c2.56,33.37,5.09,66.74,7.7,100.11c0.25,3.26,0.57,7.35,5.12,6.91
		c4.4-0.42,4.11-4.15,3.82-7.65c-1.11-13.3-2.02-26.62-3.07-39.92c-1.86-23.54-3.75-47.07-5.67-70.61
		c-0.25-3.12-0.53-7.05-4.85-6.05C99.79,106,98.33,109.22,96.58,111.2z M186.41,117.07c0.11,0,0.23,0,0.34,0.01
		c0-2.67,0.38-5.41-0.15-7.97c-0.3-1.44-2.1-3.58-3.24-3.59c-1.61-0.01-3.65,1.34-4.72,2.71c-0.87,1.11-0.66,3.12-0.79,4.74
		c-2.38,31.1-4.74,62.21-7.1,93.31c-0.45,5.94-1.29,11.88-1.14,17.8c0.05,1.97,2.62,3.88,4.03,5.81c1.54-1.59,3.21-3.08,4.55-4.83
		c0.55-0.71,0.45-1.97,0.52-2.99C181.3,187.07,183.85,152.07,186.41,117.07z"/>
	<path d="M173.42,63.58c13.29,0,26.22-0.03,39.15,0.01c7.31,0.02,9.77,2.48,9.71,9.47c-0.06,6.6-2.49,8.99-9.53,9
		c-47.04,0.03-94.09,0.03-141.13,0c-7.16,0-9.77-2.68-9.67-9.58c0.09-6.34,2.78-8.87,9.76-8.89c12.93-0.05,25.86-0.01,39.21-0.01
		c3.87-17.39,14.71-26.97,32.47-26.71C158.94,37.08,168.04,45.74,173.42,63.58z M158.03,63.36c-2.97-8.99-9.49-13.84-16.93-13.2
		c-7.68,0.65-13.37,5.95-14.13,13.2C137.17,63.36,147.36,63.36,158.03,63.36z"/>
</g>
</svg>
