<svg><?xml version="1.0" encoding="utf-8"?>
<!-- Generator: Adobe Illustrator 24.1.3, SVG Export Plug-In . SVG Version: 6.00 Build 0)  -->
<symbol fill="#00FF00" version="1.1" id="Layer_1" xmlns="http://www.w3.org/2000/svg" xmlns:xlink="http://www.w3.org/1999/xlink" x="0px" y="0px"
	 viewBox="0 0 283.46 283.46" style="enable-background:new 0 0 283.46 283.46;" xml:space="preserve">
<g>
	<path d="M55.38,54.43c2.02-2.02,3.97-4.12,6.08-6.04c2.08-1.89,4.04-2.15,5.67,0.74c0.6,1.07,1.59,1.97,2.56,2.76
		c2.58,2.13,6,3.14,7.05,7.18c0.44,1.7,3.26,2.76,4.98,4.14c14.35,11.54,28.79,22.97,42.98,34.7c4.32,3.57,8.72,6.33,14.32,7.28
		c8.77,1.49,15.8,6.14,22,12.39c20.13,20.27,40.38,40.43,60.56,60.65c3.84,3.85,7.62,7.77,11.32,11.75c4.1,4.4,3.91,9.57,0.72,13.95
		c-5,6.89-10.49,13.49-16.35,19.66c-3.43,3.6-7.86,6.35-12.1,9.06c-4.89,3.13-9.99,3.67-14.65-0.66c-3.51-3.26-7.01-6.54-10.4-9.93
		c-20.67-20.66-41.25-41.39-61.98-62c-6.36-6.32-10.85-13.56-12.37-22.44c-0.84-4.91-3.15-8.89-6.27-12.71
		C86.9,109.45,74.48,93.8,61.9,78.3c-1.04-1.28-2.79-1.97-4.11-3.05c-0.97-0.8-1.81-1.76-2.67-2.69c-2.06-2.22-4.05-4.5-6.16-6.66
		c-1.77-1.81-1.41-3.5,0.11-5.11C51.12,58.62,53.27,56.55,55.38,54.43z"/>
</g>
</svg>
<?xml version="1.0" encoding="utf-8"?>
<!-- Generator: Adobe Illustrator 24.1.3, SVG Export Plug-In . SVG Version: 6.00 Build 0)  -->
<symbol fill="#0000FF" version="1.1" id="Layer_1" xmlns="http://www.w3.org/2000/svg" xmlns:xlink="http://www.w3.org/1999/xlink" x="0px" y="0px"
	 viewBox="0 0 283.46 283.46" style="enable-background:new 0 0 283.46 283.46;" xml:space="preserve">
<g>
	<path d="M142.84,161.37c-3.17-15.56-7.19-30.42-14.4-44.25c-0.63-1.22-1.32-2.04-2.81-2.21c-1.54-0.18-3.04-0.7-4.63-1.08
		c-0.37,2.25-0.63,4.45-1.11,6.6c-0.96,4.28-2.66,8.23-5.58,11.58c-5.58,6.4-13.89,6.48-19.3-0.05c-1.76-2.12-2.88-4.77-4.27-7.2
		c-0.31-0.55-0.48-1.17-0.64-1.55c-2.89,0.72-5.61,1.71-8.41,2.03c-10.31,1.21-16.73-6.26-14.33-16.48
		c1.07-4.54,3.33-8.47,6.22-12.06c0.36-0.45,0.72-0.89,1.05-1.29c-2.19-1.54-4.37-2.92-6.37-4.52c-3.02-2.4-5.44-5.32-6.93-8.92
		c-2.89-6.99,0-13.67,7.09-16.42c6.01-2.33,12.06-1.74,18.11-0.17c0.56,0.14,1.11,0.33,1.79,0.53c0.35-2.18,0.6-4.31,1.06-6.39
		c1-4.58,2.82-8.8,6.04-12.29c5.26-5.7,12.98-5.93,18.22-0.22c2.01,2.19,3.28,5.06,4.84,7.65c0.35,0.59,0.52,1.29,0.79,2
		c1.81-0.58,3.53-1.38,5.33-1.65c2.52-0.38,5.16-0.8,7.64-0.44c7.3,1.07,11.35,7.35,10.02,14.86c-0.92,5.16-3.31,9.58-6.57,13.59
		c-0.33,0.41-0.67,0.8-1.11,1.34c6.87,4,12.79,8.77,14.59,17.37c2.73-5.79,6.27-10.53,10.6-14.74c5.82-5.66,13-8.65,20.61-10.78
		c13.27-3.71,26.89-5.03,40.6-5.56c2.81-0.11,4.74,1.89,4.28,4.51c-2.58,14.79-6.2,29.25-12.47,43
		c-6.19,13.57-16.7,21.47-31.07,24.56c-7.43,1.6-14.33,0.76-22.37-2.74c-2.78,7.04-5.56,14.05-8.48,21.43c2.21,0,3.89,0,5.58,0
		c10.13-0.01,20.27-0.04,30.4-0.02c1.22,0,2.49,0.08,3.64,0.43c3.6,1.08,5.71,4.39,5.42,8.25c-0.26,3.55-2.9,6.41-6.52,7.04
		c-0.63,0.11-1.28,0.17-1.92,0.17c-27.24,0.01-54.47,0.01-81.71,0c-4.66,0-7.85-2.65-8.49-6.98c-0.59-4.03,2.36-8.1,6.38-8.73
		c0.98-0.15,1.98-0.18,2.98-0.18c11.3-0.01,22.61-0.01,33.91-0.01C141.24,161.37,141.93,161.37,142.84,161.37z M107.35,99.45
		c5.55-0.01,9.92-4.4,9.89-9.93c-0.03-5.52-4.46-9.89-9.99-9.86c-5.4,0.03-9.8,4.45-9.82,9.87
		C97.41,95.04,101.84,99.46,107.35,99.45z M153.28,135.33c-3.11-3.32-5.25-7.08-6.41-11.41c-1.16-4.34-1.1-8.72-0.5-13.1
		c-1.62,1.03-3.06,2.15-4.66,2.91c-1.66,0.78-3.48,1.22-5.4,1.87c5.05,10.18,8.53,20.91,11.41,32.15
		C149.67,143.42,151.45,139.43,153.28,135.33z"/>
	<path d="M107.32,181.62c26.28,0,52.33,0,78.56,0c-0.91,4.33-1.8,8.55-2.69,12.76c-2.91,13.79-5.8,27.57-8.72,41.35
		c-0.78,3.65-3.1,5.53-6.82,5.53c-14.06,0.02-28.11,0.02-42.17,0c-3.4,0-5.93-1.83-6.59-4.94
		C115.01,218.15,111.19,199.95,107.32,181.62z"/>
</g>
</svg>
</svg>